<?xml version="1.0" encoding="UTF-8"?>
<svg xmlns="http://www.w3.org/2000/svg" viewBox="0 0 3873.34 2518.14">
  <defs>
    <style>
      .cls-1 {
        fill: #141a1f;
      }

      .cls-2 {
        stroke-dasharray: 0 10.36;
      }

      .cls-2, .cls-3, .cls-4 {
        fill: none;
        stroke: #fff;
        stroke-miterlimit: 10;
        stroke-width: 3.45px;
      }

      .cls-5 {
        fill: #11161a;
      }

      .cls-6 {
        isolation: isolate;
      }

      .cls-7 {
        fill: #374754;
      }

      .cls-8 {
        fill: #1c82ad;
      }

      .cls-9 {
        fill: #333;
      }

      .cls-10 {
        fill: #2f3c47;
      }

      .cls-11 {
        fill: #778681;
      }

      .cls-12 {
        fill: #03c988;
      }

      .cls-13 {
        fill: #00337c;
      }

      .cls-3 {
        stroke-dasharray: 0 0 10.12 10.12;
      }

      .cls-14 {
        fill: #222b33;
      }

      .cls-15 {
        fill: #b8c6cc;
      }

      .cls-16 {
        fill: #666;
        mix-blend-mode: soft-light;
      }
    </style>
  </defs>
  <g class="cls-6">
    <g #ref id="Layer_1" data-name="Layer 1">
      <g>
        <rect class="cls-5" x="467.02" y="424.93" width="2859.81" height="1734.67" rx="37.9" ry="37.9"/>
        <path class="cls-9" d="m765.41,581.97h569.06c19.63,0,35.57,15.94,35.57,35.57v1349.44c0,19.63-15.94,35.57-35.57,35.57h-569.06c-19.63,0-35.57-15.94-35.57-35.57V617.54c0-19.63,15.94-35.57,35.57-35.57Z"/>
        <g>
          <rect class="cls-11" x="1542.27" y="592.36" width="17.83" height="26.54"/>
          <rect class="cls-11" x="1533.85" y="647.29" width="26.26" height="26.54"/>
          <rect class="cls-11" x="1533.85" y="702.22" width="26.26" height="26.54"/>
          <rect class="cls-11" x="1533.85" y="757.15" width="26.26" height="26.54"/>
          <rect class="cls-11" x="1533.85" y="812.08" width="26.26" height="26.54"/>
          <rect class="cls-11" x="1533.85" y="867.01" width="26.26" height="26.54"/>
          <rect class="cls-11" x="1533.85" y="921.94" width="26.26" height="26.54"/>
          <rect class="cls-11" x="1533.85" y="976.87" width="26.26" height="26.54"/>
          <rect class="cls-11" x="1533.85" y="1031.8" width="26.26" height="26.54"/>
          <rect class="cls-11" x="1533.85" y="1086.73" width="26.26" height="26.54"/>
          <rect class="cls-11" x="1524.05" y="1141.67" width="34.81" height="26.54"/>
          <rect class="cls-11" x="1524.05" y="1196.6" width="34.81" height="26.54"/>
          <rect class="cls-11" x="1524.05" y="1251.53" width="34.81" height="26.54"/>
          <rect class="cls-11" x="1524.05" y="1306.46" width="34.81" height="26.54"/>
          <rect class="cls-11" x="1524.05" y="1361.39" width="34.81" height="26.54"/>
          <rect class="cls-11" x="1524.05" y="1416.32" width="34.81" height="26.54"/>
          <rect class="cls-11" x="1524.05" y="1471.25" width="34.81" height="26.54"/>
          <rect class="cls-11" x="1524.05" y="1526.18" width="34.81" height="26.54"/>
          <rect class="cls-11" x="1524.05" y="1581.11" width="34.81" height="26.54"/>
          <rect class="cls-11" x="1524.05" y="1636.04" width="34.81" height="26.54"/>
          <rect class="cls-11" x="1524.05" y="1690.97" width="34.81" height="26.54"/>
          <rect class="cls-11" x="1524.05" y="1745.91" width="34.81" height="26.54"/>
          <rect class="cls-11" x="1524.05" y="1800.84" width="34.81" height="26.54"/>
          <rect class="cls-11" x="1524.05" y="1855.77" width="34.81" height="26.54"/>
          <rect class="cls-11" x="1524.05" y="1910.7" width="34.81" height="26.54"/>
          <rect class="cls-11" x="1524.05" y="1965.63" width="34.81" height="26.54"/>
          <rect class="cls-8" x="1673.56" y="592.36" width="602.45" height="26.54"/>
          <rect class="cls-8" x="1673.56" y="645.18" width="431.14" height="26.54"/>
          <rect class="cls-8" x="2658.57" y="645.18" width="80.1" height="26.54"/>
          <rect class="cls-12" x="2779.24" y="645.18" width="152.5" height="26.54"/>
          <rect class="cls-15" x="2144.75" y="645.18" width="474.15" height="26.54"/>
          <rect class="cls-8" x="1789.39" y="697.99" width="396.37" height="26.54"/>
          <rect class="cls-8" x="1940.8" y="750.81" width="365.24" height="26.54"/>
          <rect class="cls-8" x="1940.8" y="803.63" width="259.98" height="26.54"/>
          <rect class="cls-15" x="2237.76" y="803.63" width="336" height="26.54"/>
          <rect class="cls-12" x="2607.81" y="803.63" width="121.48" height="26.54"/>
          <rect class="cls-12" x="2648.03" y="1120.54" width="90.64" height="26.54"/>
          <rect class="cls-12" x="2433.67" y="1543.08" width="90.64" height="26.54"/>
          <rect class="cls-12" x="2607.81" y="1648.72" width="121.48" height="26.54"/>
          <rect class="cls-12" x="2497.95" y="1807.17" width="56.01" height="26.54"/>
          <rect class="cls-12" x="2169.12" y="1437.45" width="84.71" height="26.54"/>
          <rect class="cls-12" x="2363.4" y="1278.99" width="120.62" height="26.54"/>
          <rect class="cls-12" x="2177.02" y="962.08" width="121.48" height="26.54"/>
          <rect class="cls-8" x="1940.8" y="856.45" width="365.24" height="26.54"/>
          <rect class="cls-8" x="1789.39" y="909.27" width="396.37" height="26.54"/>
          <rect class="cls-8" x="2222.09" y="908.97" width="167.55" height="26.54"/>
          <rect class="cls-8" x="1789.39" y="962.08" width="348.93" height="26.54"/>
          <rect class="cls-8" x="1673.56" y="1014.9" width="258.87" height="26.54"/>
          <rect class="cls-8" x="2431.78" y="908.67" width="95.53" height="26.54"/>
          <rect class="cls-8" x="1673.56" y="1067.72" width="378.96" height="26.54"/>
          <rect class="cls-8" x="1789.39" y="1120.54" width="291.11" height="26.54"/>
          <rect class="cls-15" x="2114.64" y="1120.54" width="235.21" height="26.54"/>
          <rect class="cls-15" x="2381.82" y="1120.54" width="235.21" height="26.54"/>
          <rect class="cls-8" x="1789.39" y="1173.36" width="517.94" height="26.54"/>
          <rect class="cls-8" x="1940.8" y="1226.17" width="259.98" height="26.54"/>
          <rect class="cls-8" x="1940.8" y="1278.99" width="393.41" height="26.54"/>
          <rect class="cls-8" x="1940.8" y="1331.81" width="308.9" height="26.54"/>
          <rect class="cls-8" x="1940.8" y="1384.63" width="393.41" height="26.54"/>
          <rect class="cls-8" x="1794.69" y="1437.45" width="343.64" height="26.54"/>
          <rect class="cls-15" x="2169.77" y="1648.72" width="411.36" height="26.54"/>
          <rect class="cls-8" x="1673.56" y="1543.08" width="316.32" height="26.54"/>
          <rect class="cls-8" x="1963.86" y="1490.27" width="67.72" height="26.54"/>
          <rect class="cls-8" x="1673.56" y="1595.9" width="389.44" height="26.54"/>
          <rect class="cls-8" x="2360.89" y="1807.17" width="104.13" height="26.54"/>
          <rect class="cls-15" x="2127.94" y="1807.17" width="198.98" height="26.54"/>
          <rect class="cls-8" x="1789.39" y="1648.72" width="348.93" height="26.54"/>
          <rect class="cls-8" x="1789.39" y="1701.54" width="381.28" height="26.54"/>
          <rect class="cls-8" x="1940.8" y="1754.36" width="409.72" height="26.54"/>
          <rect class="cls-8" x="1940.8" y="1807.17" width="154.45" height="26.54"/>
          <rect class="cls-8" x="1940.8" y="1859.99" width="335.59" height="26.54"/>
          <rect class="cls-8" x="1789.39" y="1912.81" width="226.83" height="26.54"/>
          <rect class="cls-8" x="2060.04" y="1543.08" width="151.43" height="26.54"/>
          <rect class="cls-15" x="2247.94" y="1543.08" width="151.43" height="26.54"/>
          <rect class="cls-8" x="1789.39" y="1965.63" width="396.89" height="26.54"/>
          <rect class="cls-8" x="2233.63" y="1965.63" width="116.89" height="26.54"/>
        </g>
        <g>
          <rect class="cls-11" x="791.56" y="704.6" width="14.78" height="22"/>
          <rect class="cls-11" x="784.58" y="739.55" width="21.77" height="22"/>
          <rect class="cls-11" x="784.58" y="774.5" width="21.77" height="22"/>
          <rect class="cls-11" x="784.58" y="809.45" width="21.77" height="22"/>
          <rect class="cls-11" x="784.58" y="844.4" width="21.77" height="22"/>
          <rect class="cls-11" x="784.58" y="879.35" width="21.77" height="22"/>
          <rect class="cls-11" x="784.58" y="914.3" width="21.77" height="22"/>
          <rect class="cls-11" x="784.58" y="949.25" width="21.77" height="22"/>
          <rect class="cls-11" x="784.58" y="984.2" width="21.77" height="22"/>
          <rect class="cls-11" x="784.58" y="1019.14" width="21.77" height="22"/>
          <rect class="cls-11" x="776.45" y="1054.09" width="28.86" height="22"/>
          <rect class="cls-11" x="776.45" y="1089.04" width="28.86" height="22"/>
          <rect class="cls-11" x="776.45" y="1123.99" width="28.86" height="22"/>
          <rect class="cls-11" x="776.45" y="1158.94" width="28.86" height="22"/>
          <rect class="cls-11" x="776.45" y="1193.89" width="28.86" height="22"/>
          <rect class="cls-11" x="776.45" y="1228.84" width="28.86" height="22"/>
          <rect class="cls-11" x="776.45" y="1263.79" width="28.86" height="22"/>
          <rect class="cls-11" x="776.45" y="1298.74" width="28.86" height="22"/>
          <rect class="cls-11" x="776.45" y="1333.69" width="28.86" height="22"/>
          <rect class="cls-11" x="776.45" y="1368.64" width="28.86" height="22"/>
          <rect class="cls-11" x="776.45" y="1403.58" width="28.86" height="22"/>
          <rect class="cls-11" x="776.45" y="1438.53" width="28.86" height="22"/>
          <rect class="cls-11" x="776.45" y="1473.48" width="28.86" height="22"/>
          <rect class="cls-11" x="776.45" y="1508.43" width="28.86" height="22"/>
          <rect class="cls-11" x="776.45" y="1543.38" width="28.86" height="22"/>
          <rect class="cls-11" x="776.45" y="1578.33" width="28.86" height="22"/>
          <rect class="cls-11" x="776.45" y="1613.28" width="28.86" height="22"/>
          <rect class="cls-11" x="776.45" y="1648.23" width="28.86" height="22"/>
          <rect class="cls-11" x="776.45" y="1683.18" width="28.86" height="22"/>
          <rect class="cls-11" x="776.45" y="1718.13" width="28.86" height="22"/>
          <rect class="cls-11" x="776.45" y="1753.08" width="28.86" height="22"/>
          <rect class="cls-11" x="776.45" y="1788.02" width="28.86" height="22"/>
          <rect class="cls-11" x="776.45" y="1822.97" width="28.86" height="22"/>
          <rect class="cls-11" x="776.45" y="1857.92" width="28.86" height="22"/>
          <rect class="cls-8" x="876.55" y="704.6" width="287.03" height="22"/>
          <rect class="cls-8" x="876.55" y="739.55" width="205.41" height="22"/>
          <rect class="cls-8" x="967.67" y="774.5" width="188.85" height="22"/>
          <rect class="cls-8" x="1075.74" y="809.45" width="174.01" height="22"/>
          <rect class="cls-8" x="1075.74" y="844.4" width="123.86" height="22"/>
          <rect class="cls-8" x="1075.74" y="879.35" width="174.01" height="22"/>
          <rect class="cls-8" x="967.67" y="914.3" width="188.85" height="22"/>
          <rect class="cls-8" x="967.67" y="949.25" width="166.24" height="22"/>
          <rect class="cls-8" x="876.55" y="984.2" width="123.33" height="22"/>
          <rect class="cls-8" x="876.55" y="1019.14" width="180.55" height="22"/>
          <rect class="cls-8" x="967.67" y="1054.09" width="138.7" height="22"/>
          <rect class="cls-8" x="967.67" y="1089.04" width="246.77" height="22"/>
          <rect class="cls-8" x="1075.74" y="1123.99" width="123.86" height="22"/>
          <rect class="cls-8" x="1075.74" y="1158.94" width="187.43" height="22"/>
          <rect class="cls-8" x="1075.74" y="1193.89" width="147.17" height="22"/>
          <rect class="cls-8" x="1075.74" y="1228.84" width="187.43" height="22"/>
          <rect class="cls-8" x="970.19" y="1263.79" width="163.72" height="22"/>
          <rect class="cls-8" x="876.55" y="1298.74" width="150.7" height="22"/>
          <rect class="cls-8" x="1050.79" y="1298.74" width="32.27" height="22"/>
          <rect class="cls-8" x="876.55" y="1333.69" width="185.54" height="22"/>
          <rect class="cls-8" x="967.67" y="1368.64" width="166.24" height="22"/>
          <rect class="cls-8" x="967.67" y="1403.58" width="181.66" height="22"/>
          <rect class="cls-8" x="1075.74" y="1438.53" width="195.2" height="22"/>
          <rect class="cls-8" x="1075.74" y="1473.48" width="73.59" height="22"/>
          <rect class="cls-8" x="1075.74" y="1508.43" width="159.89" height="22"/>
          <rect class="cls-8" x="967.67" y="1543.38" width="108.07" height="22"/>
          <rect class="cls-8" x="1101.65" y="1543.38" width="47.68" height="22"/>
          <rect class="cls-8" x="967.67" y="1578.33" width="178.96" height="22"/>
          <rect class="cls-8" x="1075.74" y="1613.28" width="80.78" height="22"/>
          <rect class="cls-8" x="1075.74" y="1648.23" width="187.43" height="22"/>
          <rect class="cls-8" x="967.67" y="1683.18" width="188.85" height="22"/>
          <rect class="cls-8" x="876.55" y="1718.13" width="239" height="22"/>
          <rect class="cls-8" x="876.55" y="1753.08" width="150.7" height="22"/>
          <rect class="cls-8" x="967.67" y="1788.02" width="117.51" height="22"/>
          <rect class="cls-8" x="1106.82" y="1788.02" width="64.53" height="22"/>
          <rect class="cls-8" x="876.55" y="1822.97" width="179.66" height="22"/>
          <rect class="cls-8" x="876.55" y="1857.92" width="70.89" height="22"/>
        </g>
        <path class="cls-14" d="m504.92,424.93h2784.01c20.92,0,37.9,16.98,37.9,37.9v52.82H467.02v-52.82c0-20.92,16.98-37.9,37.9-37.9Z"/>
        <circle class="cls-7" cx="558.38" cy="470.29" r="26.91" transform="translate(35.36 979.61) rotate(-84.35)"/>
        <circle class="cls-7" cx="652.16" cy="470.29" r="26.91" transform="translate(119.9 1072.93) rotate(-84.35)"/>
        <circle class="cls-7" cx="745.93" cy="470.29" r="26.91" transform="translate(-88.09 183.96) rotate(-13.28)"/>
      </g>
      <rect class="cls-12" x="2383.5" y="286.07" width="361.04" height="98.26" rx="49.13" ry="49.13"/>
      <rect class="cls-12" x="3378.03" y="876.31" width="495.31" height="98.26" rx="49.13" ry="49.13"/>
      <rect class="cls-12" x="3378.03" y="1000.01" width="495.31" height="98.26" rx="49.13" ry="49.13"/>
      <rect class="cls-12" x="1547.03" y="2296.18" width="495.31" height="98.26" rx="49.13" ry="49.13"/>
      <rect class="cls-12" x="1547.03" y="2419.88" width="495.31" height="98.26" rx="49.13" ry="49.13"/>
      <rect class="cls-12" x="2134.17" y="2296.18" width="495.31" height="98.26" rx="49.13" ry="49.13"/>
      <rect class="cls-12" x="2134.17" y="2419.88" width="495.31" height="98.26" rx="49.13" ry="49.13"/>
      <rect class="cls-12" x="3378.03" y="1123.71" width="495.31" height="98.26" rx="49.13" ry="49.13"/>
      <rect class="cls-12" x="3378.03" y="1247.41" width="495.31" height="98.26" rx="49.13" ry="49.13"/>
      <rect class="cls-13" x="746.77" y="2181.43" width="245.2" height="98.26" rx="49.13" ry="49.13"/>
      <g>
        <path class="cls-16" d="m131.6,239.08h1010.37c10.04,0,18.19,8.15,18.19,18.19v863.71c0,10.04-8.15,18.19-18.19,18.19H149.79c-10.04,0-18.19-8.15-18.19-18.19V239.08h0Z"/>
        <path class="cls-16" d="m65.8,173.28h1010.37c10.04,0,18.19,8.15,18.19,18.19v863.71c0,10.04-8.15,18.19-18.19,18.19H83.99c-10.04,0-18.19-8.15-18.19-18.19V173.28h0Z"/>
        <rect class="cls-1" y="107.48" width="1028.56" height="900.09" rx="18.19" ry="18.19"/>
        <g>
          <rect class="cls-11" x="102.58" y="194.35" width="9.25" height="13.77"/>
          <rect class="cls-11" x="98.21" y="222.86" width="13.62" height="13.77"/>
          <rect class="cls-11" x="98.21" y="251.36" width="13.62" height="13.77"/>
          <rect class="cls-11" x="98.21" y="279.86" width="13.62" height="13.77"/>
          <rect class="cls-11" x="98.21" y="308.37" width="13.62" height="13.77"/>
          <rect class="cls-11" x="98.21" y="336.87" width="13.62" height="13.77"/>
          <rect class="cls-11" x="98.21" y="365.37" width="13.62" height="13.77"/>
          <rect class="cls-11" x="98.21" y="393.87" width="13.62" height="13.77"/>
          <rect class="cls-11" x="98.21" y="422.38" width="13.62" height="13.77"/>
          <rect class="cls-11" x="98.21" y="450.88" width="13.62" height="13.77"/>
          <rect class="cls-11" x="93.12" y="479.38" width="18.06" height="13.77"/>
          <rect class="cls-11" x="93.12" y="507.88" width="18.06" height="13.77"/>
          <rect class="cls-11" x="93.12" y="536.39" width="18.06" height="13.77"/>
          <rect class="cls-11" x="93.12" y="564.89" width="18.06" height="13.77"/>
          <rect class="cls-11" x="93.12" y="593.39" width="18.06" height="13.77"/>
          <rect class="cls-11" x="93.12" y="621.89" width="18.06" height="13.77"/>
          <rect class="cls-11" x="93.12" y="650.4" width="18.06" height="13.77"/>
          <rect class="cls-11" x="93.12" y="678.9" width="18.06" height="13.77"/>
          <rect class="cls-11" x="93.12" y="707.4" width="18.06" height="13.77"/>
          <rect class="cls-11" x="93.12" y="735.9" width="18.06" height="13.77"/>
          <rect class="cls-11" x="93.12" y="764.41" width="18.06" height="13.77"/>
          <rect class="cls-11" x="93.12" y="792.91" width="18.06" height="13.77"/>
          <rect class="cls-11" x="93.12" y="821.41" width="18.06" height="13.77"/>
          <rect class="cls-11" x="93.12" y="849.91" width="18.06" height="13.77"/>
          <rect class="cls-11" x="93.12" y="878.42" width="18.06" height="13.77"/>
          <rect class="cls-11" x="93.12" y="906.92" width="18.06" height="13.77"/>
          <rect class="cls-8" x="170.7" y="194.35" width="312.6" height="13.77"/>
          <rect class="cls-8" x="170.7" y="221.76" width="223.71" height="13.77"/>
          <rect class="cls-8" x="681.81" y="221.76" width="41.56" height="13.77"/>
          <rect class="cls-12" x="744.42" y="221.76" width="79.13" height="13.77"/>
          <rect class="cls-15" x="415.19" y="221.76" width="246.03" height="13.77"/>
          <rect class="cls-8" x="230.8" y="249.17" width="205.67" height="13.77"/>
          <rect class="cls-8" x="309.37" y="276.57" width="189.52" height="13.77"/>
          <rect class="cls-8" x="309.37" y="303.98" width="134.9" height="13.77"/>
          <rect class="cls-15" x="463.45" y="303.98" width="174.34" height="13.77"/>
          <rect class="cls-12" x="655.47" y="303.98" width="63.03" height="13.77"/>
          <rect class="cls-12" x="676.34" y="468.42" width="47.03" height="13.77"/>
          <rect class="cls-12" x="565.11" y="687.67" width="47.03" height="13.77"/>
          <rect class="cls-12" x="655.47" y="742.48" width="63.03" height="13.77"/>
          <rect class="cls-12" x="598.46" y="824.7" width="29.06" height="13.77"/>
          <rect class="cls-12" x="427.84" y="632.86" width="43.95" height="13.77"/>
          <rect class="cls-12" x="528.65" y="550.64" width="62.58" height="13.77"/>
          <rect class="cls-12" x="431.94" y="386.2" width="63.03" height="13.77"/>
          <rect class="cls-8" x="309.37" y="331.39" width="189.52" height="13.77"/>
          <rect class="cls-8" x="230.8" y="358.79" width="205.67" height="13.77"/>
          <rect class="cls-8" x="455.33" y="358.64" width="86.94" height="13.77"/>
          <rect class="cls-8" x="230.8" y="386.2" width="181.05" height="13.77"/>
          <rect class="cls-8" x="170.7" y="413.61" width="134.32" height="13.77"/>
          <rect class="cls-8" x="564.13" y="358.48" width="49.57" height="13.77"/>
          <rect class="cls-8" x="170.7" y="441.01" width="196.63" height="13.77"/>
          <rect class="cls-8" x="230.8" y="468.42" width="151.05" height="13.77"/>
          <rect class="cls-15" x="399.57" y="468.42" width="122.04" height="13.77"/>
          <rect class="cls-15" x="538.21" y="468.42" width="122.04" height="13.77"/>
          <rect class="cls-8" x="230.8" y="495.82" width="268.75" height="13.77"/>
          <rect class="cls-8" x="309.37" y="523.23" width="134.9" height="13.77"/>
          <rect class="cls-8" x="309.37" y="550.64" width="204.13" height="13.77"/>
          <rect class="cls-8" x="309.37" y="578.04" width="160.29" height="13.77"/>
          <rect class="cls-8" x="309.37" y="605.45" width="204.13" height="13.77"/>
          <rect class="cls-8" x="233.55" y="632.86" width="178.31" height="13.77"/>
          <rect class="cls-15" x="428.18" y="742.48" width="213.45" height="13.77"/>
          <rect class="cls-8" x="170.7" y="687.67" width="164.13" height="13.77"/>
          <rect class="cls-8" x="321.33" y="660.26" width="35.14" height="13.77"/>
          <rect class="cls-8" x="170.7" y="715.08" width="202.07" height="13.77"/>
          <rect class="cls-8" x="527.35" y="824.7" width="54.03" height="13.77"/>
          <rect class="cls-15" x="406.47" y="824.7" width="103.25" height="13.77"/>
          <rect class="cls-8" x="230.8" y="742.48" width="181.05" height="13.77"/>
          <rect class="cls-8" x="230.8" y="769.89" width="197.84" height="13.77"/>
          <rect class="cls-8" x="309.37" y="797.29" width="212.6" height="13.77"/>
          <rect class="cls-8" x="309.37" y="824.7" width="80.14" height="13.77"/>
          <rect class="cls-8" x="309.37" y="852.11" width="174.13" height="13.77"/>
          <rect class="cls-8" x="230.8" y="879.51" width="117.7" height="13.77"/>
          <rect class="cls-8" x="371.24" y="687.67" width="78.57" height="13.77"/>
          <rect class="cls-15" x="468.74" y="687.67" width="78.57" height="13.77"/>
          <rect class="cls-8" x="230.8" y="906.92" width="205.94" height="13.77"/>
          <rect class="cls-8" x="461.31" y="906.92" width="60.65" height="13.77"/>
        </g>
        <path class="cls-14" d="m18.19,107.48h992.18c10.04,0,18.19,8.15,18.19,18.19v28.88H0v-28.88c0-10.04,8.15-18.19,18.19-18.19Z"/>
        <circle class="cls-7" cx="47.41" cy="131.01" r="13.96" transform="translate(-89.51 156.82) rotate(-80.78)"/>
        <circle class="cls-7" cx="96.06" cy="131.01" r="13.96" transform="translate(-48.65 204.85) rotate(-80.78)"/>
        <circle class="cls-7" cx="144.72" cy="131.01" r="13.96" transform="translate(-3 258.64) rotate(-82.98)"/>
      </g>
      <g>
        <rect class="cls-10" x="3000.02" y="2008.03" width="633.95" height="509.09" rx="26.05" ry="26.05"/>
        <circle class="cls-15" cx="3316.99" cy="2133.39" r="70.69" transform="translate(679.82 5065.82) rotate(-80.78)"/>
        <rect class="cls-15" x="3165.21" y="2242.59" width="303.56" height="42.3"/>
        <rect class="cls-15" x="3165.21" y="2317.44" width="303.56" height="42.3"/>
        <rect class="cls-12" x="3251.41" y="2423.23" width="131.17" height="42.3" rx="21.15" ry="21.15"/>
      </g>
      <g>
        <line class="cls-4" x1="721.3" y1="2232.87" x2="716.12" y2="2232.87"/>
        <path class="cls-3" d="m706,2232.87h-269.72c-22.9,0-41.46-18.56-41.46-41.46v-64.78"/>
        <line class="cls-4" x1="394.82" y1="2121.57" x2="394.82" y2="2116.39"/>
      </g>
      <line class="cls-2" x1="2350.56" y1="335.2" x2="1906.85" y2="335.2"/>
      <line class="cls-2" x1="1457.48" y1="2232.87" x2="1013.77" y2="2232.87"/>
      <path class="cls-2" d="m2775.07,335.2h90.36c22.9,0,41.46-18.56,41.46-41.46v-69.67c0-22.9,18.56-41.46,41.46-41.46h510.83c22.9,0,41.46,18.56,41.46,41.46v616.01"/>
      <g>
        <polyline class="cls-4" points="2626.12 239.53 2578.24 191.65 2142.14 191.65"/>
        <path class="cls-4" d="m2637.48,244.17c0-3.66-2.97-6.63-6.63-6.63s-6.63,2.97-6.63,6.63,2.97,6.63,6.63,6.63,6.63-2.97,6.63-6.63Z"/>
      </g>
      <g>
        <polyline class="cls-4" points="618.17 49.61 570.29 1.73 134.19 1.73"/>
        <path class="cls-4" d="m629.53,54.25c0-3.66-2.97-6.63-6.63-6.63s-6.63,2.97-6.63,6.63,2.97,6.63,6.63,6.63,6.63-2.97,6.63-6.63Z"/>
      </g>
      <circle class="cls-12" cx="3201.27" cy="182.62" r="30.52"/>
      <g>
        <rect class="cls-7" x="2829.61" y="1414.13" width="586.88" height="779.35" rx="18.89" ry="18.89"/>
        <rect class="cls-15" x="2895.27" y="1467.79" width="116.83" height="116.83"/>
        <rect class="cls-15" x="3073.23" y="1478.66" width="149.44" height="17.12"/>
        <rect class="cls-15" x="3073.23" y="1553.55" width="199.7" height="17.12"/>
        <rect class="cls-15" x="3266.14" y="1478.66" width="84.68" height="17.12"/>
        <rect class="cls-15" x="3201.39" y="1516.1" width="149.44" height="17.12" transform="translate(6552.21 3049.32) rotate(180)"/>
        <rect class="cls-15" x="3073.23" y="1516.1" width="84.68" height="17.12" transform="translate(6231.15 3049.32) rotate(180)"/>
        <rect class="cls-15" x="2895.27" y="1648.05" width="116.83" height="116.83"/>
        <rect class="cls-15" x="3073.23" y="1658.92" width="149.44" height="17.12"/>
        <rect class="cls-15" x="3073.23" y="1733.8" width="199.7" height="17.12"/>
        <rect class="cls-15" x="3266.14" y="1658.92" width="84.68" height="17.12"/>
        <rect class="cls-15" x="3201.39" y="1696.36" width="149.44" height="17.12" transform="translate(6552.21 3409.83) rotate(180)"/>
        <rect class="cls-15" x="3073.23" y="1696.36" width="84.68" height="17.12" transform="translate(6231.15 3409.83) rotate(180)"/>
        <rect class="cls-15" x="2895.27" y="1828.3" width="116.83" height="116.83"/>
        <rect class="cls-15" x="3073.23" y="1839.17" width="149.44" height="17.12"/>
        <rect class="cls-15" x="3073.23" y="1914.05" width="199.7" height="17.12"/>
        <rect class="cls-15" x="3266.14" y="1839.17" width="84.68" height="17.12"/>
        <rect class="cls-15" x="3201.39" y="1876.61" width="149.44" height="17.12" transform="translate(6552.21 3770.34) rotate(180)"/>
        <rect class="cls-15" x="3073.23" y="1876.61" width="84.68" height="17.12" transform="translate(6231.15 3770.34) rotate(180)"/>
        <rect class="cls-15" x="2895.27" y="2008.55" width="116.83" height="116.83"/>
        <rect class="cls-15" x="3073.23" y="2019.42" width="149.44" height="17.12"/>
        <rect class="cls-15" x="3073.23" y="2094.31" width="199.7" height="17.12"/>
        <rect class="cls-15" x="3266.14" y="2019.42" width="84.68" height="17.12"/>
        <rect class="cls-15" x="3201.39" y="2056.86" width="149.44" height="17.12" transform="translate(6552.21 4130.84) rotate(180)"/>
        <rect class="cls-15" x="3073.23" y="2056.86" width="84.68" height="17.12" transform="translate(6231.15 4130.84) rotate(180)"/>
      </g>
      <g>
        <rect class="cls-7" x="37.8" y="1216.32" width="596.23" height="808.78" rx="17.26" ry="17.26"/>
        <rect class="cls-8" x="131.05" y="1285.64" width="409.74" height="31.87"/>
        <rect class="cls-8" x="131.05" y="1351.81" width="140.11" height="31.87"/>
        <rect class="cls-8" x="302.94" y="1351.81" width="237.85" height="31.87"/>
        <rect class="cls-8" x="131.05" y="1413.35" width="200.02" height="31.87"/>
        <rect class="cls-8" x="131.05" y="1599.55" width="200.02" height="31.87"/>
        <rect class="cls-8" x="359.8" y="1413.35" width="180.99" height="31.87"/>
        <rect class="cls-8" x="400.68" y="1534.32" width="140.11" height="31.87" transform="translate(941.46 3100.5) rotate(180)"/>
        <rect class="cls-8" x="131.05" y="1534.32" width="237.85" height="31.87" transform="translate(499.94 3100.5) rotate(180)"/>
        <rect class="cls-8" x="340.76" y="1472.78" width="200.02" height="31.87" transform="translate(881.55 2977.43) rotate(180)"/>
        <rect class="cls-8" x="131.05" y="1472.78" width="180.99" height="31.87" transform="translate(443.09 2977.43) rotate(180)"/>
        <path class="cls-8" d="m613.19,1445.21h5.73c2.69,0,4.88,2.19,4.88,4.88v330.79c0,2.69-2.19,4.88-4.88,4.88h-5.73c-2.69,0-4.88-2.19-4.88-4.88v-330.79c0-2.69,2.19-4.88,4.88-4.88Z"/>
      </g>
    </g>
  </g>
</svg>